REM MD5 04b634b0c176c8e591990e1e638f7bcc
FILE "Euro Demo 10 (Europe).bin" BINARY
  TRACK 01 MODE2/2352
    INDEX 01 00:00:00
  TRACK 02 AUDIO
    INDEX 00 10:46:61
    INDEX 01 10:48:61
  TRACK 03 AUDIO
    INDEX 00 14:01:18
    INDEX 01 14:03:18
  TRACK 04 AUDIO
    INDEX 00 16:11:47
    INDEX 01 16:13:47
  TRACK 05 AUDIO
    INDEX 00 18:18:10
    INDEX 01 18:20:10
  TRACK 06 AUDIO
    INDEX 00 26:05:41
    INDEX 01 26:07:41
REM LEADOUT 29:03:45
